<svg width="293" height="291" viewBox="0 0 293 291" fill="none" xmlns="http://www.w3.org/2000/svg">
<g clip-path="url(#clip0_135_130)">
<path d="M290.491 145.5C290.51 162.058 287.701 178.499 282.187 194.109C282.183 194.119 282.18 194.126 282.176 194.137C282.152 194.209 282.128 194.275 282.1 194.347V194.351C280.924 197.662 279.631 200.917 278.223 204.118C274.669 212.188 270.389 219.918 265.437 227.211C264.236 228.987 262.993 230.735 261.707 232.454C260.293 234.355 258.833 236.217 257.329 238.042C255.942 239.725 254.519 241.376 253.058 242.995C251.323 244.923 249.536 246.802 247.697 248.632C243.369 252.949 238.774 256.989 233.938 260.728C233.09 261.388 232.232 262.036 231.365 262.673C229.346 264.166 227.288 265.606 225.189 266.993C220.573 270.05 215.784 272.838 210.847 275.343C209.995 275.779 209.136 276.207 208.274 276.622C204.937 278.236 201.533 279.721 198.062 281.077C197.071 281.467 196.078 281.844 195.074 282.207C194.905 282.273 194.736 282.335 194.563 282.394C182.658 286.698 170.24 289.415 157.627 290.474C156.751 290.553 155.874 290.62 154.995 290.674C154.064 290.74 153.131 290.793 152.197 290.833C151.459 290.871 150.724 290.899 149.982 290.92C149.83 290.927 149.675 290.933 149.523 290.933C148.526 290.965 147.526 290.984 146.522 290.992C146.098 290.996 145.673 290.999 145.245 290.999C145.045 290.999 144.845 290.999 144.645 290.996C141.751 290.985 138.878 290.891 136.027 290.712C135.968 290.709 135.91 290.702 135.851 290.702C134.83 290.633 133.812 290.56 132.798 290.47C129.186 290.166 125.613 289.729 122.079 289.157C121.264 289.029 120.453 288.891 119.643 288.742C116.127 288.12 112.658 287.37 109.234 286.492C108.216 286.233 107.204 285.963 106.198 285.68C100.391 284.061 94.6903 282.078 89.131 279.743C85.9398 278.402 82.8083 276.953 79.7367 275.395C78.3532 274.694 76.9836 273.97 75.6277 273.225C75.2585 273.024 74.8928 272.82 74.5271 272.616C71.8568 271.123 69.2417 269.55 66.6818 267.896C64.5842 266.544 62.5257 265.139 60.5063 263.679C60.2579 263.506 60.013 263.327 59.768 263.147C58.219 262.017 56.6952 260.858 55.1968 259.67C51.9365 257.082 48.7924 254.362 45.7644 251.51C43.6703 249.54 41.6371 247.508 39.6648 245.414C28.1731 233.24 18.8632 219.171 12.1441 203.827C10.7158 200.561 9.40481 197.235 8.2111 193.85C8.20723 193.842 8.20489 193.834 8.20421 193.826C2.75663 178.299 -0.0175646 161.957 8.36742e-05 145.5C8.36742e-05 84.4105 37.5845 32.1136 90.8526 10.5479C109.836 2.8949 130.217 -0.6644 150.666 0.101992C171.115 0.868383 191.173 5.94326 209.533 14.9958C257.502 38.7492 290.491 88.2675 290.491 145.5Z" fill="#F2F2F2"/>
<path d="M209.533 14.9958V198.861H90.8525V10.5479C109.836 2.8949 130.217 -0.664402 150.666 0.10199C171.115 0.868382 191.173 5.94326 209.533 14.9958Z" fill="white"/>
<path d="M119.412 98.8425C122.632 93.5084 126.447 87.8132 132.421 86.0714C139.34 84.0544 146.448 88.0613 152.476 92.0153C170.506 103.841 187.869 116.656 204.486 130.402L204.467 130.609C191.531 129.715 178.594 128.822 165.657 127.928C156.311 127.282 146.643 126.548 138.383 122.118C135.249 120.438 132.193 118.192 128.641 118.036C124.229 117.842 120.381 120.929 117.357 124.154C99.4713 143.234 94.2954 172.411 74.229 189.174C86.8823 157.914 101.991 127.709 119.412 98.8425Z" fill="#F2F2F2"/>
<path d="M218.214 19.6855C217.913 19.485 217.61 19.295 217.31 19.1014C208.633 13.5426 199.333 9.02673 189.603 5.64702L187.346 36.8275H173.043V1.09541C172.142 0.908781 171.235 0.732523 170.327 0.566633V36.8275H153.329C143.972 36.8275 134.997 33.1036 128.38 26.4752C121.763 19.8467 118.046 10.8566 118.046 1.48253C117.135 1.67952 116.231 1.89031 115.327 2.11495V36.8275H101.483L99.3332 7.09511C89.3332 10.937 79.8396 15.9892 71.0638 22.1393C70.912 22.243 70.7602 22.3501 70.6118 22.4538C69.8494 22.9895 69.0973 23.5355 68.3486 24.0885V197.648H109.152L108.431 187.642L104.463 78.1031H184.362L180.395 187.642L179.673 197.648H220.025V20.8882C219.424 20.4804 218.821 20.0795 218.214 19.6855ZM115.327 69.0309H103.808L101.679 39.5508H115.327V69.0309ZM170.327 69.0309H150.98V68.4469C150.98 68.1661 150.925 67.8881 150.817 67.6287C150.71 67.3693 150.552 67.1337 150.354 66.9353C150.156 66.737 149.92 66.5797 149.661 66.4726C149.402 66.3655 149.125 66.3106 148.844 66.311H140.433C140.153 66.3109 139.876 66.3661 139.617 66.4734C139.358 66.5807 139.123 66.738 138.925 66.9363C138.727 67.1347 138.57 67.3702 138.463 67.6294C138.356 67.8886 138.301 68.1663 138.301 68.4469V69.0309H118.046V39.5508H170.327V69.0309ZM173.043 69.0309V39.5508H187.15L185.021 69.0309H173.043Z" fill="#3F3D56"/>
<path d="M282.187 194.108C282.184 194.119 282.18 194.125 282.177 194.136C282.152 194.208 282.128 194.274 282.101 194.347V194.35C280.924 197.661 279.632 200.917 278.223 204.117L12.1445 203.827C10.7162 200.561 9.40519 197.235 8.21149 193.849C8.20762 193.841 8.20527 193.833 8.20459 193.825L282.187 194.108Z" fill="#3F3D56"/>
<path d="M182.751 195.245H136.176V201.466H182.751V195.245Z" fill="white"/>
<path d="M74.5234 256.166C74.689 254.704 74.9179 253.251 75.2099 251.808C76.8065 243.981 80.2329 236.644 85.2081 230.401C88.0543 230.56 90.5487 230.124 90.7867 224.602C90.8316 223.62 91.5595 222.766 91.7182 221.799C91.4491 221.837 91.1697 221.858 90.9006 221.875C90.8143 221.878 90.7246 221.885 90.6418 221.889H90.6108C90.312 221.903 90.0156 221.83 89.7573 221.679C89.4991 221.528 89.29 221.305 89.1554 221.037C89.0207 220.77 88.9663 220.469 88.9987 220.171C89.031 219.873 89.1488 219.591 89.3377 219.359C89.455 219.217 89.5723 219.072 89.6896 218.927C89.8656 218.702 90.0484 218.484 90.2278 218.263C90.2485 218.239 90.2658 218.218 90.2865 218.194C90.49 217.942 90.6936 217.69 90.9006 217.437C90.5266 216.856 90.0236 216.368 89.4309 216.013C87.3781 214.807 84.5457 215.644 83.0622 217.503C81.5752 219.362 81.2923 221.975 81.8098 224.297C82.2514 226.288 83.214 228.113 84.2938 229.848C84.1834 229.99 84.0661 230.128 83.9557 230.273C81.921 232.895 80.1473 235.71 78.66 238.678C79.0809 235.384 73.9369 223.496 71.9462 220.976C69.5554 217.952 64.6564 219.272 64.2355 223.109C64.232 223.143 64.2251 223.181 64.2217 223.219C64.5184 223.385 64.8082 223.561 65.0911 223.751C65.4465 223.989 65.7218 224.329 65.8811 224.727C66.0403 225.124 66.0761 225.56 65.9836 225.978C65.8911 226.396 65.6747 226.777 65.3628 227.069C65.0508 227.362 64.6579 227.554 64.2355 227.619L64.1906 227.626C60.2369 233.283 72.9157 248.009 76.0931 244.705C75.2943 246.954 74.6567 249.257 74.1853 251.597C73.7622 253.661 73.4672 255.749 73.3021 257.849C73.1008 260.494 73.1135 263.151 73.3401 265.794C73.3338 265.763 73.3292 265.732 73.3262 265.701C72.619 259.943 60.5198 251.383 56.987 252.094C54.9515 252.506 52.947 252.412 53.2575 254.469C53.261 254.503 53.2679 254.534 53.2713 254.569C53.82 254.791 54.3536 255.048 54.8687 255.34C55.1654 255.506 55.4552 255.685 55.7381 255.872C56.0708 256.095 56.3339 256.407 56.497 256.774C56.6602 257.14 56.7167 257.545 56.6601 257.942C56.6035 258.339 56.436 258.712 56.1771 259.017C55.9181 259.323 55.5782 259.549 55.1965 259.67C56.6972 260.856 58.221 262.014 59.7677 263.147C60.0127 263.327 60.2576 263.506 60.506 263.679C62.5243 265.138 64.5828 266.543 66.6815 267.896C69.2414 269.547 71.8565 271.121 74.5269 272.616C74.8926 272.82 75.2583 273.024 75.6274 273.225C74.6993 269.399 74.2291 265.477 74.2267 261.54C74.2258 259.744 74.3248 257.95 74.5234 256.166ZM76.4106 243.817L76.4175 243.807C76.4173 243.813 76.4149 243.819 76.4106 243.824V243.817ZM73.6609 268.67L73.5539 268.431C73.5574 268.255 73.5574 268.082 73.5539 267.902C73.5539 267.854 73.5436 267.806 73.5436 267.757C73.585 268.065 73.6195 268.372 73.6644 268.68L73.6609 268.67ZM89.5068 269.14C89.5447 268.981 89.5758 268.87 89.6137 268.711C89.5999 268.677 89.5861 268.642 89.5723 268.611C88.4235 265.87 82.3584 271.397 79.7364 275.395C82.8069 276.95 85.9383 278.4 89.1307 279.743C89.3446 279.473 89.5654 279.207 89.7828 278.938C89.8035 278.913 89.8207 278.893 89.838 278.868C90.3072 278.288 90.7798 277.714 91.2456 277.134C91.249 277.02 91.249 276.905 91.249 276.795C91.2444 275.13 91.0406 273.472 90.6418 271.856C90.3214 271.871 90.0041 271.787 89.733 271.615C89.4619 271.443 89.2501 271.192 89.1262 270.895C89.0023 270.599 88.9724 270.272 89.0405 269.958C89.1086 269.644 89.2713 269.358 89.5068 269.14Z" fill="white"/>
<path d="M164.137 197.211C164.965 197.783 165.909 198.167 166.901 198.334C167.893 198.502 168.91 198.449 169.88 198.181C170.85 197.912 171.749 197.433 172.515 196.779C173.28 196.124 173.893 195.309 174.31 194.392L198.665 196.674L192.686 185.437L170.474 184.993C168.889 184.393 167.14 184.397 165.557 185.003C163.975 185.609 162.669 186.776 161.888 188.282C161.107 189.788 160.904 191.529 161.319 193.174C161.733 194.82 162.736 196.256 164.137 197.211Z" fill="#FFB6B6"/>
<path d="M188.833 196.442L222.536 200.227L222.652 200.078C222.874 199.793 244.927 171.515 248.632 164.783C250.912 160.739 251.742 156.035 250.985 151.453L250.96 151.341L250.872 151.267C249.075 149.758 246.819 148.908 244.476 148.857C242.132 148.805 239.841 149.556 237.98 150.984C229.032 157.926 221.817 166.857 216.905 177.071L214.117 182.884L188.833 185.382V196.442Z" fill="#6C63FF"/>
<path d="M161.489 275.531L154.996 290.675C154.065 290.741 153.132 290.794 152.198 290.834C151.46 290.872 150.725 290.9 149.983 290.921L149.731 291L149.524 290.934C148.527 290.965 147.527 290.985 146.523 290.993C146.098 290.997 145.674 291 145.246 291C145.046 291 144.846 291 144.646 290.997L145.077 289.517L145.584 287.765L147.599 280.825L150.508 270.806L154.834 272.666L161.489 275.531Z" fill="#FFB6B6"/>
<path d="M208.274 276.623C204.938 278.237 201.534 279.722 198.062 281.078L194.667 275.358L205.611 270.544L208.274 276.623Z" fill="#FFB6B6"/>
<path d="M231.365 250.626V262.674C229.347 264.167 227.289 265.607 225.19 266.994V250.626H231.365Z" fill="#CACACA"/>
<path d="M253.059 242.996C251.324 244.924 249.537 246.803 247.698 248.632C243.37 252.95 238.775 256.99 233.939 260.728H206.408C205.677 260.729 204.955 260.572 204.289 260.27C203.623 259.968 203.029 259.527 202.548 258.976L202.544 258.966C201.97 258.317 201.571 257.532 201.385 256.685L201.381 256.678C201.304 256.315 201.264 255.944 201.264 255.572V248.152C201.265 246.785 201.807 245.475 202.772 244.508C203.736 243.541 205.044 242.997 206.408 242.996H253.059Z" fill="#3F3D56"/>
<path d="M264.402 214.034L261.418 226.842C261.71 228.698 261.807 230.579 261.708 232.455C260.293 234.355 258.834 236.218 257.33 238.043C255.943 239.726 254.519 241.377 253.059 242.996C251.323 244.924 249.536 246.803 247.697 248.632C242.909 250.139 237.265 250.754 231.365 250.796C229.33 250.813 227.263 250.758 225.19 250.647C216.782 250.205 208.278 248.854 201.312 247.45C199.47 247.084 197.738 246.711 196.144 246.348C193.125 245.667 190.6 245.031 188.771 244.547C186.712 244.008 185.539 243.659 185.539 243.659L177.704 256.802L170.59 268.733L161.423 280.452C160.547 280.532 159.669 280.598 158.791 280.653C157.859 280.718 156.927 280.771 155.993 280.812C155.254 280.85 154.52 280.877 153.778 280.898L153.526 280.977L153.319 280.912L149.993 279.851L148.872 279.495L144.839 278.209C144.839 278.209 145.739 275.368 147.316 270.63C147.896 268.892 152.001 256.039 156.296 244.817C157.569 241.485 158.887 238.105 160.243 234.742C161.354 231.981 162.486 229.23 163.631 226.517C165.622 221.813 175.24 219.277 186.567 217.946C187.143 217.88 187.722 217.815 188.305 217.753C194.077 217.144 200.201 216.83 205.928 216.685C208.795 216.612 211.562 216.584 214.136 216.581C214.967 216.581 215.776 216.583 216.561 216.588H216.565C218.686 216.598 220.639 216.629 222.357 216.664C222.692 216.671 223.016 216.681 223.333 216.688H223.337C223.551 216.692 223.761 216.698 223.968 216.702C227.725 216.799 230.03 216.916 230.03 216.916L230.923 209.893L231.106 208.477L231.279 207.129V207.125L231.299 206.956L231.441 206.952L233.925 206.904L254.804 206.496L263.698 206.119L264.402 214.034Z" fill="#2F2E41"/>
<path d="M207.743 270.851C206.891 271.287 206.032 271.715 205.169 272.13C201.833 273.744 198.429 275.229 194.957 276.585C193.967 276.975 192.973 277.352 191.969 277.715C191.859 277.559 191.745 277.404 191.631 277.248C186.843 270.665 183.862 266.469 177.704 256.802C175.127 252.759 172.536 248.542 170.021 244.236L188.23 235.721L190.272 234.767L196.144 246.348L201.381 256.678L202.547 258.976L207.743 270.851Z" fill="#2F2E41"/>
<path d="M237.279 131.348C246.544 131.348 254.055 123.824 254.055 114.543C254.055 105.262 246.544 97.738 237.279 97.738C228.014 97.738 220.503 105.262 220.503 114.543C220.503 123.824 228.014 131.348 237.279 131.348Z" fill="#FFB6B6"/>
<path d="M267.225 166.779C267.087 152.9 267.494 156.919 266.397 152.139C263.45 139.29 251.22 136.947 249.088 136.656C248.861 136.051 248.512 135.498 248.063 135.034C247.613 134.569 247.073 134.202 246.476 133.955C245.879 133.708 245.238 133.587 244.592 133.6C243.946 133.612 243.31 133.757 242.723 134.026L238.641 136.147C234.684 137.961 237.085 140.582 235.719 144.719L234.284 149.109L222.523 181.675L224.903 194.065L224.907 194.072L226.511 202.418L231.268 207.847L231.179 206.98L231.072 207.146L231.069 207.149L230.793 207.561C231.176 207.771 231.555 207.979 231.928 208.186C232.894 208.718 233.836 209.24 234.753 209.752C234.974 209.876 235.191 209.997 235.409 210.122H235.412C235.55 210.198 235.688 210.274 235.823 210.35C239.266 212.278 226.522 215.79 229.354 217.438C229.747 217.666 230.137 217.894 230.52 218.119C243.561 225.76 253.966 235.278 257.33 238.043C258.834 236.218 260.294 234.355 261.708 232.455C262.992 230.737 264.235 228.989 265.438 227.212C265.648 225.822 265.79 224.433 265.928 223.071C266.093 221.433 265.231 206.258 265.52 204.588C265.648 203.849 265.158 203.147 264.686 202.47C264.247 201.837 263.833 201.243 263.92 200.683C264.009 200.106 264.644 199.477 265.262 198.865C265.934 198.195 266.631 197.504 266.731 196.774C267.007 194.742 265.872 192.703 266.086 190.657C266.438 187.329 266.708 183.99 266.897 180.641C267.163 176.017 267.272 171.397 267.225 166.779Z" fill="#6C63FF"/>
<path d="M172.603 200.818C173.296 200.087 174.14 199.516 175.077 199.147C176.013 198.778 177.019 198.619 178.023 198.682C179.028 198.744 180.006 199.026 180.89 199.509C181.774 199.991 182.541 200.661 183.138 201.473L206.499 194.204L202.963 206.436L181.322 211.463C179.894 212.377 178.182 212.735 176.508 212.469C174.835 212.203 173.317 211.332 172.243 210.02C171.168 208.707 170.611 207.046 170.678 205.35C170.744 203.654 171.429 202.042 172.603 200.818Z" fill="#FFB6B6"/>
<path d="M200.924 207.584L244.285 198.629L233.032 201.421C233.159 201.083 245.807 167.51 247.343 159.979C248.317 155.438 247.712 150.7 245.627 146.551L245.569 146.452L245.464 146.407C243.3 145.503 240.894 145.364 238.641 146.014C236.388 146.664 234.424 148.064 233.072 149.982C226.593 159.278 222.36 169.956 220.707 181.172L219.773 187.553L204.486 192.135L200.924 207.584Z" fill="#6C63FF"/>
<path d="M120.116 193.908C120.268 194.352 120.557 194.735 120.94 195.004C121.323 195.273 121.782 195.414 122.249 195.405L131.389 195.17C131.86 195.16 132.316 194.999 132.688 194.709C133.06 194.419 133.328 194.016 133.453 193.56L134.746 179.706C135.205 179.914 135.704 180.017 136.208 180.007C137.092 179.985 137.93 179.612 138.54 178.97C139.149 178.328 139.479 177.47 139.456 176.585C139.434 175.7 139.062 174.86 138.421 174.249C137.781 173.639 136.924 173.309 136.041 173.331C135.839 173.33 135.639 173.351 135.442 173.393C135.228 173.161 134.967 172.977 134.678 172.852C134.388 172.726 134.076 172.663 133.76 172.666L119.701 173.03C119.585 173.034 119.469 173.049 119.354 173.073C119.046 173.131 118.754 173.254 118.497 173.434C118.24 173.614 118.025 173.848 117.865 174.118C117.706 174.389 117.606 174.691 117.573 175.003C117.54 175.316 117.574 175.631 117.673 175.93L120.116 193.908ZM135.011 178.765L135.931 175.464C136.036 175.082 136.039 174.68 135.939 174.297C135.983 174.297 136.023 174.276 136.067 174.276C136.698 174.263 137.309 174.501 137.765 174.938C138.221 175.375 138.485 175.976 138.5 176.608C138.515 177.24 138.279 177.852 137.844 178.31C137.408 178.768 136.81 179.035 136.179 179.051C135.771 179.064 135.367 178.965 135.011 178.765Z" fill="#2F2E41"/>
<path d="M119.354 173.073C119.654 174.789 123.022 175.995 127.071 175.785C130.794 175.613 133.839 174.304 134.397 172.751C134.19 172.69 133.975 172.662 133.76 172.666L119.701 173.03C119.585 173.034 119.469 173.049 119.354 173.073Z" fill="#3F3D56"/>
<path d="M58.2163 160.531V190.151C58.2166 190.529 58.3664 190.89 58.6329 191.157C58.8993 191.424 59.2606 191.574 59.6374 191.575H103.454C103.831 191.574 104.192 191.424 104.459 191.157C104.725 190.89 104.875 190.529 104.875 190.151V160.531C104.874 160.154 104.724 159.793 104.458 159.526C104.191 159.26 103.831 159.11 103.454 159.109H59.6374C59.2609 159.11 58.9 159.26 58.6336 159.526C58.3673 159.793 58.2172 160.154 58.2163 160.531Z" fill="#3F3D56"/>
<path d="M59.2441 160.9V189.786C59.2445 189.987 59.3246 190.181 59.467 190.323C59.6093 190.466 59.8023 190.546 60.0036 190.546H103.089C103.291 190.546 103.484 190.466 103.626 190.323C103.768 190.181 103.848 189.987 103.849 189.786V160.9C103.849 160.698 103.769 160.504 103.626 160.361C103.484 160.218 103.291 160.138 103.089 160.137H60.0036C59.8021 160.138 59.6089 160.218 59.4665 160.361C59.3241 160.504 59.2442 160.698 59.2441 160.9Z" fill="#6C63FF"/>
<path d="M57.3001 195.928C57.3803 196.029 57.4824 196.11 57.5985 196.165C57.7146 196.221 57.8418 196.25 57.9706 196.249H104.888C105.016 196.249 105.143 196.22 105.259 196.165C105.374 196.109 105.476 196.029 105.557 195.929C105.638 195.829 105.696 195.713 105.726 195.588C105.756 195.463 105.758 195.333 105.732 195.207L105.003 191.741C104.973 191.6 104.908 191.469 104.814 191.359C104.721 191.249 104.601 191.165 104.466 191.113C104.368 191.075 104.264 191.055 104.16 191.055H58.696C58.5911 191.055 58.4872 191.075 58.3896 191.113C58.2548 191.165 58.135 191.249 58.0411 191.359C57.9472 191.469 57.8822 191.6 57.8521 191.741L57.1238 195.207C57.0979 195.333 57.1002 195.462 57.1307 195.587C57.1612 195.712 57.2191 195.828 57.3001 195.928Z" fill="#2F2E41"/>
<path d="M102.55 192.548H103.658C103.751 192.548 103.826 192.472 103.826 192.379V191.848C103.826 191.755 103.751 191.679 103.658 191.679H102.55C102.457 191.679 102.381 191.755 102.381 191.848V192.379C102.381 192.472 102.457 192.548 102.55 192.548Z" fill="#3F3D56"/>
<path d="M99.6594 192.548H100.768C100.861 192.548 100.936 192.472 100.936 192.379V191.848C100.936 191.755 100.861 191.679 100.768 191.679H99.6594C99.5664 191.679 99.491 191.755 99.491 191.848V192.379C99.491 192.472 99.5664 192.548 99.6594 192.548Z" fill="#3F3D56"/>
<path d="M96.7698 192.548H97.878C97.971 192.548 98.0464 192.472 98.0464 192.379V191.848C98.0464 191.755 97.971 191.679 97.878 191.679H96.7698C96.6768 191.679 96.6013 191.755 96.6013 191.848V192.379C96.6013 192.472 96.6768 192.548 96.7698 192.548Z" fill="#3F3D56"/>
<path d="M93.8796 192.548H94.9878C95.0808 192.548 95.1562 192.472 95.1562 192.379V191.848C95.1562 191.755 95.0808 191.679 94.9878 191.679H93.8796C93.7866 191.679 93.7112 191.755 93.7112 191.848V192.379C93.7112 192.472 93.7866 192.548 93.8796 192.548Z" fill="#3F3D56"/>
<path d="M90.9895 192.548H92.0977C92.1907 192.548 92.2661 192.472 92.2661 192.379V191.848C92.2661 191.755 92.1907 191.679 92.0977 191.679H90.9895C90.8965 191.679 90.8211 191.755 90.8211 191.848V192.379C90.8211 192.472 90.8965 192.548 90.9895 192.548Z" fill="#3F3D56"/>
<path d="M88.0994 192.548H89.2076C89.3006 192.548 89.376 192.472 89.376 192.379V191.848C89.376 191.755 89.3006 191.679 89.2076 191.679H88.0994C88.0063 191.679 87.9309 191.755 87.9309 191.848V192.379C87.9309 192.472 88.0063 192.548 88.0994 192.548Z" fill="#3F3D56"/>
<path d="M85.2092 192.548H86.3174C86.4104 192.548 86.4858 192.472 86.4858 192.379V191.848C86.4858 191.755 86.4104 191.679 86.3174 191.679H85.2092C85.1162 191.679 85.0408 191.755 85.0408 191.848V192.379C85.0408 192.472 85.1162 192.548 85.2092 192.548Z" fill="#3F3D56"/>
<path d="M82.3191 192.548H83.4273C83.5203 192.548 83.5957 192.472 83.5957 192.379V191.848C83.5957 191.755 83.5203 191.679 83.4273 191.679H82.3191C82.2261 191.679 82.1507 191.755 82.1507 191.848V192.379C82.1507 192.472 82.2261 192.548 82.3191 192.548Z" fill="#3F3D56"/>
<path d="M79.429 192.548H80.5371C80.6301 192.548 80.7056 192.472 80.7056 192.379V191.848C80.7056 191.755 80.6301 191.679 80.5371 191.679H79.429C79.3359 191.679 79.2605 191.755 79.2605 191.848V192.379C79.2605 192.472 79.3359 192.548 79.429 192.548Z" fill="#3F3D56"/>
<path d="M76.5393 192.548H77.6475C77.7405 192.548 77.8159 192.472 77.8159 192.379V191.848C77.8159 191.755 77.7405 191.679 77.6475 191.679H76.5393C76.4463 191.679 76.3709 191.755 76.3709 191.848V192.379C76.3709 192.472 76.4463 192.548 76.5393 192.548Z" fill="#3F3D56"/>
<path d="M73.6492 192.548H74.7574C74.8504 192.548 74.9258 192.472 74.9258 192.379V191.848C74.9258 191.755 74.8504 191.679 74.7574 191.679H73.6492C73.5562 191.679 73.4808 191.755 73.4808 191.848V192.379C73.4808 192.472 73.5562 192.548 73.6492 192.548Z" fill="#3F3D56"/>
<path d="M70.759 192.548H71.8672C71.9602 192.548 72.0356 192.472 72.0356 192.379V191.848C72.0356 191.755 71.9602 191.679 71.8672 191.679H70.759C70.666 191.679 70.5906 191.755 70.5906 191.848V192.379C70.5906 192.472 70.666 192.548 70.759 192.548Z" fill="#3F3D56"/>
<path d="M67.8689 192.548H68.9771C69.0701 192.548 69.1455 192.472 69.1455 192.379V191.848C69.1455 191.755 69.0701 191.679 68.9771 191.679H67.8689C67.7759 191.679 67.7005 191.755 67.7005 191.848V192.379C67.7005 192.472 67.7759 192.548 67.8689 192.548Z" fill="#3F3D56"/>
<path d="M64.9788 192.548H66.0869C66.18 192.548 66.2554 192.472 66.2554 192.379V191.848C66.2554 191.755 66.18 191.679 66.0869 191.679H64.9788C64.8858 191.679 64.8103 191.755 64.8103 191.848V192.379C64.8103 192.472 64.8858 192.548 64.9788 192.548Z" fill="#3F3D56"/>
<path d="M62.0886 192.548H63.1968C63.2898 192.548 63.3652 192.472 63.3652 192.379V191.848C63.3652 191.755 63.2898 191.679 63.1968 191.679H62.0886C61.9956 191.679 61.9202 191.755 61.9202 191.848V192.379C61.9202 192.472 61.9956 192.548 62.0886 192.548Z" fill="#3F3D56"/>
<path d="M59.1985 192.548H60.3067C60.3997 192.548 60.4751 192.472 60.4751 192.379V191.848C60.4751 191.755 60.3997 191.679 60.3067 191.679H59.1985C59.1055 191.679 59.0301 191.755 59.0301 191.848V192.379C59.0301 192.472 59.1055 192.548 59.1985 192.548Z" fill="#3F3D56"/>
<path d="M102.584 193.995H103.692C103.785 193.995 103.86 193.92 103.86 193.827V193.296C103.86 193.202 103.785 193.127 103.692 193.127H102.584C102.491 193.127 102.415 193.202 102.415 193.296V193.827C102.415 193.92 102.491 193.995 102.584 193.995Z" fill="#3F3D56"/>
<path d="M99.6936 193.995H100.802C100.895 193.995 100.97 193.92 100.97 193.827V193.296C100.97 193.202 100.895 193.127 100.802 193.127H99.6936C99.6006 193.127 99.5252 193.202 99.5252 193.296V193.827C99.5252 193.92 99.6006 193.995 99.6936 193.995Z" fill="#3F3D56"/>
<path d="M96.804 193.995H97.9121C98.0052 193.995 98.0806 193.92 98.0806 193.827V193.296C98.0806 193.202 98.0052 193.127 97.9121 193.127H96.804C96.7109 193.127 96.6355 193.202 96.6355 193.296V193.827C96.6355 193.92 96.7109 193.995 96.804 193.995Z" fill="#3F3D56"/>
<path d="M93.9138 193.995H95.022C95.115 193.995 95.1904 193.92 95.1904 193.827V193.296C95.1904 193.202 95.115 193.127 95.022 193.127H93.9138C93.8208 193.127 93.7454 193.202 93.7454 193.296V193.827C93.7454 193.92 93.8208 193.995 93.9138 193.995Z" fill="#3F3D56"/>
<path d="M91.0237 193.995H92.1319C92.2249 193.995 92.3003 193.92 92.3003 193.827V193.296C92.3003 193.202 92.2249 193.127 92.1319 193.127H91.0237C90.9307 193.127 90.8553 193.202 90.8553 193.296V193.827C90.8553 193.92 90.9307 193.995 91.0237 193.995Z" fill="#3F3D56"/>
<path d="M88.1336 193.995H89.2417C89.3347 193.995 89.4102 193.92 89.4102 193.827V193.296C89.4102 193.202 89.3347 193.127 89.2417 193.127H88.1336C88.0405 193.127 87.9651 193.202 87.9651 193.296V193.827C87.9651 193.92 88.0405 193.995 88.1336 193.995Z" fill="#3F3D56"/>
<path d="M85.2434 193.995H86.3516C86.4446 193.995 86.52 193.92 86.52 193.827V193.296C86.52 193.202 86.4446 193.127 86.3516 193.127H85.2434C85.1504 193.127 85.075 193.202 85.075 193.296V193.827C85.075 193.92 85.1504 193.995 85.2434 193.995Z" fill="#3F3D56"/>
<path d="M82.3533 193.995H83.4615C83.5545 193.995 83.6299 193.92 83.6299 193.827V193.296C83.6299 193.202 83.5545 193.127 83.4615 193.127H82.3533C82.2603 193.127 82.1848 193.202 82.1848 193.296V193.827C82.1848 193.92 82.2603 193.995 82.3533 193.995Z" fill="#3F3D56"/>
<path d="M79.4631 193.995H80.5713C80.6643 193.995 80.7397 193.92 80.7397 193.827V193.296C80.7397 193.202 80.6643 193.127 80.5713 193.127H79.4631C79.3701 193.127 79.2947 193.202 79.2947 193.296V193.827C79.2947 193.92 79.3701 193.995 79.4631 193.995Z" fill="#3F3D56"/>
<path d="M76.5735 193.995H77.6817C77.7747 193.995 77.8501 193.92 77.8501 193.827V193.296C77.8501 193.202 77.7747 193.127 77.6817 193.127H76.5735C76.4805 193.127 76.4051 193.202 76.4051 193.296V193.827C76.4051 193.92 76.4805 193.995 76.5735 193.995Z" fill="#3F3D56"/>
<path d="M73.6833 193.995H74.7915C74.8846 193.995 74.96 193.92 74.96 193.827V193.296C74.96 193.202 74.8846 193.127 74.7915 193.127H73.6833C73.5903 193.127 73.5149 193.202 73.5149 193.296V193.827C73.5149 193.92 73.5903 193.995 73.6833 193.995Z" fill="#3F3D56"/>
<path d="M70.7932 193.995H71.9014C71.9944 193.995 72.0698 193.92 72.0698 193.827V193.296C72.0698 193.202 71.9944 193.127 71.9014 193.127H70.7932C70.7002 193.127 70.6248 193.202 70.6248 193.296V193.827C70.6248 193.92 70.7002 193.995 70.7932 193.995Z" fill="#3F3D56"/>
<path d="M67.9031 193.995H69.0113C69.1043 193.995 69.1797 193.92 69.1797 193.827V193.296C69.1797 193.202 69.1043 193.127 69.0113 193.127H67.9031C67.8101 193.127 67.7346 193.202 67.7346 193.296V193.827C67.7346 193.92 67.8101 193.995 67.9031 193.995Z" fill="#3F3D56"/>
<path d="M65.0129 193.995H66.1211C66.2141 193.995 66.2896 193.92 66.2896 193.827V193.296C66.2896 193.202 66.2141 193.127 66.1211 193.127H65.0129C64.9199 193.127 64.8445 193.202 64.8445 193.296V193.827C64.8445 193.92 64.9199 193.995 65.0129 193.995Z" fill="#3F3D56"/>
<path d="M62.1228 193.995H63.231C63.324 193.995 63.3994 193.92 63.3994 193.827V193.296C63.3994 193.202 63.324 193.127 63.231 193.127H62.1228C62.0298 193.127 61.9544 193.202 61.9544 193.296V193.827C61.9544 193.92 62.0298 193.995 62.1228 193.995Z" fill="#3F3D56"/>
<path d="M59.2327 193.995H60.3409C60.4339 193.995 60.5093 193.92 60.5093 193.827V193.296C60.5093 193.202 60.4339 193.127 60.3409 193.127H59.2327C59.1396 193.127 59.0642 193.202 59.0642 193.296V193.827C59.0642 193.92 59.1396 193.995 59.2327 193.995Z" fill="#3F3D56"/>
<path d="M78.5964 195.732H89.8199C89.9129 195.732 89.9883 195.657 89.9883 195.564V195.033C89.9883 194.939 89.9129 194.864 89.8199 194.864H78.5964C78.5034 194.864 78.428 194.939 78.428 195.033V195.564C78.428 195.657 78.5034 195.732 78.5964 195.732Z" fill="#3F3D56"/>
<path d="M163.171 194.317L182.781 177.143C183.713 176.326 181.935 178.759 182.751 179.693C183.566 180.627 186.665 179.708 185.733 180.525L166.123 197.699L161.157 198.835L163.171 194.317Z" fill="#3F3D56"/>
<path d="M163.171 194.317L163.647 193.901C164.281 194.219 164.847 194.659 165.313 195.196C165.865 195.826 166.265 196.574 166.484 197.383L166.123 197.699L162.165 198.604L161.157 198.835L161.578 197.889L163.171 194.317Z" fill="#CCCCCC"/>
<path d="M161.578 197.889C161.725 197.954 161.854 198.052 161.956 198.176C162.058 198.301 162.13 198.447 162.165 198.604L161.157 198.835L161.578 197.889Z" fill="#3F3D56"/>
<path d="M291.119 139.272C289.27 142.044 286.309 143.962 283.122 144.912C281.827 145.298 280.49 145.526 279.14 145.589C278.974 144.061 278.575 142.567 277.957 141.159C278.02 142.657 277.812 144.155 277.343 145.579C275.316 145.464 273.335 144.932 271.523 144.017C267.986 142.203 265.264 138.733 264.661 134.796C263.95 130.2 266.03 125.686 266.782 121.096C267.538 116.507 266.12 110.694 261.635 109.488C258.22 108.568 258.602 108.966 255.763 111.077C258.717 115.452 247.808 131.484 243.343 130.086C240.819 129.295 239.203 126.975 238.682 126.975C235.173 133.03 241.78 143.232 235.122 145.351L235.67 144.801C239.69 139.849 231.289 129.367 235.308 124.414C236.429 123.028 237.623 121.387 237.292 119.635C236.978 117.969 234.339 117.087 233.566 118.456C234.956 115.266 232.903 111.008 229.505 110.189C226.486 109.46 226.542 110.358 223.512 110.749C223.314 109.438 222.944 108.158 222.412 106.944C222.467 108.252 222.315 109.561 221.96 110.822C220.89 110.801 219.857 110.426 219.021 109.757C216.55 107.763 217.051 103.574 219.255 101.29C221.463 99.0054 224.744 98.1828 227.873 97.6506C228.783 91.305 246.26 90.6431 248.577 96.9836C249.563 92.2488 255.48 89.7916 260.079 91.2604C264.678 92.7292 267.869 97.032 269.549 101.566C271.229 106.097 271.699 110.974 272.734 115.695C273.769 120.416 275.518 125.223 279.12 128.441C282.721 131.655 288.59 132.719 292.385 129.733C293.582 132.844 292.965 136.497 291.119 139.272Z" fill="#2F2E41"/>
</g>
<defs>
<clipPath id="clip0_135_130">
<rect width="293" height="291" fill="white"/>
</clipPath>
</defs>
</svg>
