<svg width="390" height="261" viewBox="0 0 390 261" fill="none" xmlns="http://www.w3.org/2000/svg">
<g clip-path="url(#clip0_135_315)">
<path d="M390 138.718C390 191.51 356.487 236.492 309.548 253.607C302.407 256.216 295.036 258.148 287.533 259.377C266.89 262.757 245.725 260.838 226.03 253.8C178.793 236.825 145.036 191.692 145.058 138.692C145.058 71.1843 199.892 16.4351 267.529 16.4351C293.091 16.3979 318.019 24.3828 338.789 39.2611C369.796 61.4424 390 97.7232 390 138.718Z" fill="#E5E5E5"/>
<path d="M309.548 253.607C302.407 256.216 295.036 258.148 287.533 259.377C266.89 262.757 245.725 260.838 226.03 253.8L231.686 231.141L232.028 229.781L243.57 229.825L301.554 230.033L302.296 232.223L309.548 253.607Z" fill="#2F2E41"/>
<path d="M106.383 0H0V120.191H106.383V0Z" fill="#E6E6E6"/>
<path d="M104.3 2.54272H1.89697V117.648H104.3V2.54272Z" fill="white"/>
<path d="M53.1918 113.556C56.362 113.556 58.932 110.99 58.932 107.824C58.932 104.659 56.362 102.093 53.1918 102.093C50.0216 102.093 47.4517 104.659 47.4517 107.824C47.4517 110.99 50.0216 113.556 53.1918 113.556Z" fill="#E6E6E6"/>
<path d="M52.222 43.2876H19.2524V46.6552H52.222V43.2876Z" fill="#E6E6E6"/>
<path d="M69.0124 53.3789H19.2524V56.7465H69.0124V53.3789Z" fill="#6C63FF"/>
<path d="M64.128 63.5336H19.2524V66.9012H64.128V63.5336Z" fill="#E6E6E6"/>
<path d="M88.5498 73.4199H19.2524V76.7875H88.5498V73.4199Z" fill="#6C63FF"/>
<path d="M76.4484 82.8352H19.9727V86.2028H76.4484V82.8352Z" fill="#E6E6E6"/>
<path d="M151.273 195.574C151.678 195.989 152.049 196.435 152.383 196.908L204.381 195.638L210.447 184.57L228.373 191.528L219.54 212.163C218.826 213.83 217.591 215.221 216.018 216.127C214.445 217.033 212.621 217.405 210.818 217.188L152.07 210.102C150.684 211.854 148.797 213.142 146.659 213.797C144.522 214.452 142.236 214.441 140.104 213.767C137.973 213.093 136.098 211.786 134.729 210.022C133.359 208.258 132.56 206.119 132.437 203.89C132.315 201.661 132.875 199.448 134.043 197.545C135.211 195.641 136.932 194.138 138.977 193.235C141.021 192.332 143.293 192.072 145.489 192.49C147.685 192.907 149.702 193.982 151.272 195.572L151.273 195.574Z" fill="#9F616A"/>
<path d="M221.26 132.377L245.594 124.414L252.742 114.627L287.522 116.682L292.628 128.103L311.174 136.853L308.324 189.702L303.448 239.163C278.375 226.2 231.584 236.083 231.174 236.243L221.26 132.377Z" fill="#6C63FF"/>
<path d="M226.462 203.912L201.71 194.024L201.816 193.584C201.922 193.139 212.457 149.185 213.855 142.122C215.313 134.763 220.636 132.728 220.862 132.646L221.027 132.585L230.823 135.562L235.125 169.312L226.462 203.912Z" fill="#6C63FF"/>
<path d="M279.906 236.988C280.486 236.975 281.066 237.007 281.641 237.084L316.062 198.149L312.058 186.186L329.356 177.792L338.506 198.288C339.245 199.944 339.426 201.795 339.022 203.562C338.619 205.33 337.652 206.919 336.266 208.09L291.119 246.284C291.463 248.49 291.126 250.748 290.154 252.758C289.181 254.768 287.619 256.434 285.674 257.536C283.73 258.638 281.496 259.122 279.269 258.925C277.042 258.728 274.928 257.859 273.208 256.433C271.488 255.007 270.244 253.092 269.64 250.943C269.037 248.794 269.103 246.512 269.83 244.401C270.557 242.29 271.91 240.45 273.71 239.126C275.51 237.802 277.671 237.056 279.906 236.988Z" fill="#9F616A"/>
<path d="M313.314 201.939L298.956 168.217L304.556 144.727L310.59 137.116C311.032 136.927 311.509 136.832 311.989 136.836C312.47 136.841 312.944 136.945 313.383 137.141C315.609 138.036 317.502 140.777 319.015 145.288L332.472 183.558L313.314 201.939Z" fill="#6C63FF"/>
<path d="M238.82 102.131V76.7076C238.805 72.2338 239.673 67.8008 241.374 63.6619C243.075 59.5229 245.575 55.759 248.733 52.585C251.891 49.4111 255.644 46.8892 259.778 45.1635C263.912 43.4377 268.346 42.5419 272.827 42.527C277.307 42.5122 281.747 43.3787 285.893 45.0771C290.038 46.7755 293.808 49.2724 296.986 52.4254C300.165 55.5784 302.691 59.3257 304.419 63.4533C306.148 67.5809 307.045 72.0081 307.06 76.4819C307.06 76.5571 307.06 76.6324 307.06 76.7076V102.131C307.059 103.345 306.575 104.508 305.716 105.366C304.857 106.224 303.692 106.706 302.477 106.708H243.403C242.188 106.706 241.023 106.224 240.163 105.366C239.304 104.508 238.821 103.345 238.82 102.131Z" fill="#2F2E41"/>
<path d="M265.928 106.115C279.744 106.115 290.944 94.9326 290.944 81.1381C290.944 67.3436 279.744 56.161 265.928 56.161C252.112 56.161 240.913 67.3436 240.913 81.1381C240.913 94.9326 252.112 106.115 265.928 106.115Z" fill="#9F616A"/>
<path d="M230.748 78.7416C230.756 71.5967 233.602 64.7467 238.662 59.6945C243.722 54.6423 250.582 51.8004 257.738 51.7924H262.831C269.987 51.8004 276.848 54.6423 281.908 59.6945C286.967 64.7467 289.814 71.5967 289.822 78.7416V79.25H279.059L275.388 68.9856L274.654 79.25H269.092L267.241 74.0718L266.869 79.25H230.748V78.7416Z" fill="#2F2E41"/>
<path d="M263.467 109.567C262.961 108.884 262.66 108.072 262.596 107.225C262.533 106.378 262.71 105.531 263.108 104.78C268.504 94.5312 276.06 75.5933 266.031 63.9142L265.312 63.076H294.429V106.723L267.978 111.383C267.711 111.43 267.439 111.454 267.167 111.455C266.445 111.455 265.734 111.284 265.091 110.956C264.448 110.628 263.892 110.152 263.468 109.568L263.467 109.567Z" fill="#2F2E41"/>
<path d="M53.0993 9.36096C50.6851 9.36084 48.325 10.0755 46.3176 11.4146C44.3102 12.7537 42.7455 14.6571 41.8215 16.8841C40.8975 19.1111 40.6556 21.5617 41.1265 23.9259C41.5974 26.2901 42.7598 28.4618 44.4669 30.1664C46.1739 31.871 48.3489 33.0319 50.7167 33.5023C53.0845 33.9727 55.5389 33.7315 57.7694 32.8091C59.9999 31.8868 61.9064 30.3247 63.2478 28.3205C64.5892 26.3163 65.3052 23.9599 65.3053 21.5494V21.5488C65.3053 19.9483 64.9896 18.3634 64.3761 16.8847C63.7627 15.406 62.8636 14.0624 61.7301 12.9307C60.5966 11.7989 59.2509 10.9012 57.77 10.2887C56.289 9.67621 54.7017 9.36096 53.0987 9.36096H53.0993ZM53.0993 13.017C53.8235 13.017 54.5315 13.2314 55.1336 13.6331C55.7358 14.0348 56.2051 14.6058 56.4823 15.2739C56.7594 15.9419 56.8319 16.677 56.6906 17.3862C56.5494 18.0954 56.2006 18.7469 55.6885 19.2582C55.1764 19.7695 54.524 20.1177 53.8137 20.2588C53.1034 20.3998 52.3672 20.3274 51.6981 20.0507C51.029 19.774 50.4571 19.3054 50.0548 18.7042C49.6524 18.103 49.4377 17.3961 49.4377 16.673C49.4377 15.7034 49.8235 14.7735 50.5101 14.0878C51.1968 13.4022 52.1282 13.017 53.0993 13.017ZM53.0993 30.6187C51.6527 30.6121 50.2295 30.2532 48.9532 29.5731C47.677 28.8931 46.5861 27.9124 45.7754 26.7161C45.8342 24.2786 50.658 22.9368 53.0993 22.9368C55.5406 22.9368 60.3645 24.2786 60.4233 26.7161C59.6116 27.9115 58.5206 28.8915 57.2445 29.5715C55.9684 30.2514 54.5457 30.6109 53.0993 30.6187Z" fill="#6C63FF"/>
<path d="M53.2412 110.021C58.27 100.82 70.3167 94.9931 80.1711 100.245C84.6068 102.609 88.1328 106.79 89.2521 111.732C90.5511 117.473 87.814 122.948 84.9887 127.771C83.4552 130.389 81.7747 132.953 80.5055 135.715C79.1913 138.574 78.252 141.879 79.2414 144.99C80.1321 147.792 82.3656 149.831 84.8113 151.329C87.5106 152.92 90.3817 154.2 93.3698 155.146C99.5205 157.188 106.008 158.026 112.477 157.614C115.692 157.396 118.88 156.881 122 156.077C125.319 155.232 128.576 154.161 131.901 153.335C137.451 151.958 143.78 151.274 149.043 154.039C154.157 156.726 156.445 162.346 157.153 167.814C158.46 177.91 154.45 188.387 147.212 195.457C143.739 198.849 139.368 201.652 134.608 202.798C130.455 203.799 125.122 203.734 121.817 200.634C118.129 197.175 118.996 191.627 121.926 187.976C125.665 183.319 131.999 182.2 137.652 182.087C144.082 181.958 150.506 182.914 156.932 182.319C160.069 182.076 163.147 181.334 166.05 180.124C168.602 179.003 170.93 177.43 172.921 175.481C176.889 171.632 179.564 166.505 180.895 161.175C182.497 154.764 182.148 148.027 180.904 141.588C180.241 138.267 179.388 134.988 178.348 131.765C177.918 130.405 175.768 130.987 176.201 132.356C180.031 144.482 182.166 158.504 174.766 169.762C171.704 174.537 166.933 177.965 161.427 179.349C155.022 180.939 148.302 180.153 141.791 179.917C135.6 179.692 128.802 179.935 123.495 183.535C119.141 186.488 116.096 192.105 117.412 197.407C118.681 202.521 123.603 205.115 128.525 205.514C133.69 205.934 138.773 204.204 143.11 201.497C152.134 195.867 158.133 185.966 159.389 175.469C160.043 169.999 159.377 164.107 156.893 159.143C155.584 156.455 153.546 154.188 151.012 152.598C148.484 151.051 145.565 150.29 142.633 150.02C135.972 149.408 129.573 151.691 123.254 153.438C120.026 154.373 116.717 155.003 113.371 155.321C110.124 155.59 106.858 155.537 103.621 155.163C100.409 154.784 97.2442 154.083 94.1736 153.069C91.1647 152.14 88.2837 150.84 85.5977 149.198C83.2281 147.685 81.1787 145.518 81.0622 142.565C80.9356 139.363 82.5526 136.368 84.0905 133.668C87.1289 128.336 90.8821 123.12 91.6745 116.877C92.3685 111.416 90.1677 106.034 86.3674 102.139C84.4628 100.162 82.1699 98.5993 79.6322 97.5482C77.0946 96.4971 74.3669 95.9805 71.62 96.0307C65.9815 96.1919 60.5828 98.6401 56.4355 102.4C54.3786 104.266 52.6477 106.461 51.314 108.896C50.627 110.152 52.5491 111.276 53.2368 110.018L53.2412 110.021Z" fill="#3F3D56"/>
</g>
<defs>
<clipPath id="clip0_135_315">
<rect width="390" height="261" fill="white"/>
</clipPath>
</defs>
</svg>
